<?xml version="1.0" encoding="UTF-8" standalone="no"?><!DOCTYPE svg PUBLIC "-//W3C//DTD SVG 1.1//EN" "http://www.w3.org/Graphics/SVG/1.1/DTD/svg11.dtd"><svg width="383" height="287" viewBox="0 0 383 287" version="1.1" xmlns="http://www.w3.org/2000/svg" xmlns:xlink="http://www.w3.org/1999/xlink" xml:space="preserve" xmlns:serif="http://www.serif.com/" style="fill-rule:evenodd;clip-rule:evenodd;stroke-linejoin:round;stroke-miterlimit:2;"><path d="M383,37c0,-4.415 -3.585,-8 -8,-8l-332,0c-4.415,0 -8,3.585 -8,8l0,241.157c0,4.415 3.585,8 8,8l332,-0c4.415,-0 8,-3.585 8,-8l0,-241.157Z" style="fill:#ebebeb;"/><g><path d="M361,17c0,-4.415 -3.585,-8 -8,-8l-332,0c-4.415,0 -8,3.585 -8,8l0,241.157c0,4.415 3.585,8 8,8l332,-0c4.415,-0 8,-3.585 8,-8l0,-241.157Z" style="fill:#fff;"/></g><path d="M13,20.181c0,-6.175 5.006,-11.181 11.181,-11.181l325.638,0c6.175,0 11.181,5.006 11.181,11.181l0,14.819l-348,0l0,-14.819Z" style="fill:#b9b9b9;fill-rule:nonzero;"/><path d="M330,66c0,-4.415 -3.585,-8 -8,-8l-270,0c-4.415,0 -8,3.585 -8,8l0,64c0,4.415 3.585,8 8,8l270,0c4.415,0 8,-3.585 8,-8l0,-64Z" style="fill:#d8d8d8;fill-opacity:0.2;"/><path d="M329,166c0,-4.415 -3.585,-8 -8,-8l-104,0c-4.415,0 -8,3.585 -8,8l0,73c0,4.415 3.585,8 8,8l104,0c4.415,0 8,-3.585 8,-8l0,-73Z" style="fill:#d8d8d8;fill-opacity:0.2;"/><path d="M174,177.5c0,-1.932 -1.568,-3.5 -3.5,-3.5l-113,0c-1.932,0 -3.5,1.568 -3.5,3.5c0,1.932 1.568,3.5 3.5,3.5l113,0c1.932,0 3.5,-1.568 3.5,-3.5Z" style="fill:#d8d8d8;fill-opacity:0.2;"/><path d="M174,194.5c0,-1.932 -1.568,-3.5 -3.5,-3.5l-113,0c-1.932,0 -3.5,1.568 -3.5,3.5c0,1.932 1.568,3.5 3.5,3.5l113,0c1.932,0 3.5,-1.568 3.5,-3.5Z" style="fill:#d8d8d8;fill-opacity:0.2;"/><path d="M174,211.5c0,-1.932 -1.568,-3.5 -3.5,-3.5l-113,0c-1.932,0 -3.5,1.568 -3.5,3.5c0,1.932 1.568,3.5 3.5,3.5l113,0c1.932,0 3.5,-1.568 3.5,-3.5Z" style="fill:#d8d8d8;fill-opacity:0.2;"/><path d="M174,228.5c0,-1.932 -1.568,-3.5 -3.5,-3.5l-113,0c-1.932,0 -3.5,1.568 -3.5,3.5c0,1.932 1.568,3.5 3.5,3.5l113,0c1.932,0 3.5,-1.568 3.5,-3.5Z" style="fill:#d8d8d8;fill-opacity:0.2;"/><circle cx="29.5" cy="22.5" r="5.5" style="fill:#e64b60;"/><circle cx="48.5" cy="22.5" r="5.5" style="fill:#ffbf00;"/><circle cx="67.5" cy="22.5" r="5.5" style="fill:#20bca4;"/><path id="Path-0" serif:id="Path 0" d="M105.391,480.535c-0,-7.05 -1.498,-12.525 -4.493,-16.425c-2.994,-3.899 -7.112,-5.849 -12.353,-5.849c-2.87,0 -5.88,0.967 -9.031,2.901c-3.151,1.935 -6.068,4.493 -8.751,7.675l-6.551,45.764c0.25,0.062 1.529,0.14 3.837,0.234c2.309,0.093 3.9,0.14 4.773,0.14c10.232,0 18.219,-3.026 23.959,-9.078c5.74,-6.052 8.61,-14.506 8.61,-25.362Zm21.338,-0.374c-0,7.487 -1.342,14.506 -4.025,21.057c-2.683,6.551 -6.426,12.104 -11.23,16.658c-4.804,4.555 -10.654,8.033 -17.548,10.435c-6.894,2.402 -14.615,3.603 -23.163,3.603c-10.481,0 -20.214,-0.717 -29.199,-2.152l18.062,-130.929l20.87,0l-7.299,51.754l0.093,0.094l0.281,-0.094c3.931,-3.556 7.549,-6.067 10.856,-7.534c3.307,-1.466 6.988,-2.199 11.043,-2.199c5.928,0 11.293,1.7 16.097,5.101c4.805,3.4 8.532,8.11 11.184,14.131c2.652,6.021 3.978,12.712 3.978,20.075Z" style="fill:#241f1e;fill-rule:nonzero;"/><path d="M183.068,440.854c6.489,0 12.276,1.513 17.36,4.539c5.085,3.026 9.016,7.315 11.792,12.868c2.777,5.553 4.165,11.823 4.165,18.811c0,3.12 -0.312,6.427 -0.936,9.921l-55.029,-0c-0.374,2.183 -0.562,4.18 -0.562,5.989c0,4.617 0.921,8.657 2.761,12.12c1.841,3.462 4.414,6.114 7.721,7.955c3.307,1.84 7.019,2.76 11.137,2.76c4.055,0 8.516,-0.858 13.383,-2.573c4.867,-1.716 10.388,-4.321 16.565,-7.815l-3.463,18.25c-9.982,5.49 -19.778,8.235 -29.386,8.235c-7.799,0 -14.678,-1.715 -20.636,-5.147c-5.959,-3.431 -10.544,-8.36 -13.757,-14.787c-3.214,-6.426 -4.82,-13.788 -4.82,-22.086c-0,-8.922 1.934,-17.174 5.802,-24.754c3.868,-7.581 9.156,-13.523 15.863,-17.828c6.707,-4.305 14.054,-6.458 22.04,-6.458Zm13.383,33.317l0,-1.497c0,-4.992 -1.232,-8.954 -3.697,-11.886c-2.464,-2.932 -5.974,-4.399 -10.528,-4.399c-8.985,0 -15.442,5.928 -19.373,17.782l33.598,0Z" style="fill-rule:nonzero;"/><path d="M273.193,440.854c6.488,0 12.275,1.513 17.36,4.539c5.085,3.026 9.016,7.315 11.792,12.868c2.776,5.553 4.165,11.823 4.165,18.811c-0,3.12 -0.312,6.427 -0.936,9.921l-55.03,-0c-0.374,2.183 -0.561,4.18 -0.561,5.989c-0,4.617 0.92,8.657 2.761,12.12c1.84,3.462 4.414,6.114 7.721,7.955c3.306,1.84 7.019,2.76 11.137,2.76c4.055,0 8.516,-0.858 13.383,-2.573c4.866,-1.716 10.388,-4.321 16.564,-7.815l-3.462,18.25c-9.983,5.49 -19.778,8.235 -29.387,8.235c-7.799,0 -14.677,-1.715 -20.636,-5.147c-5.958,-3.431 -10.544,-8.36 -13.757,-14.787c-3.213,-6.426 -4.82,-13.788 -4.82,-22.086c0,-8.922 1.934,-17.174 5.803,-24.754c3.868,-7.581 9.156,-13.523 15.863,-17.828c6.707,-4.305 14.053,-6.458 22.04,-6.458Zm13.383,33.317l-0,-1.497c-0,-4.992 -1.233,-8.954 -3.697,-11.886c-2.465,-2.932 -5.974,-4.399 -10.529,-4.399c-8.984,0 -15.442,5.928 -19.372,17.782l33.598,0Z" style="fill-rule:nonzero;"/></svg>